<svg width="221" height="80" viewBox="0 0 221 80" fill="none" xmlns="http://www.w3.org/2000/svg">
<g clip-path="url(#clip0_6342_6277)">
<path d="M60.8921 49.7753V30.3135H69.0802C70.4146 30.3135 71.5583 30.5399 72.5115 30.9927C73.4645 31.4455 74.1924 32.0986 74.6949 32.9519C75.1975 33.7879 75.4487 34.8066 75.4487 36.0083C75.4487 36.8617 75.2148 37.6803 74.7469 38.4639C74.279 39.2302 73.5078 39.8746 72.4335 40.397V38.4117C73.4559 38.8123 74.2443 39.2912 74.799 39.8485C75.3535 40.4058 75.7347 41.0153 75.9426 41.6771C76.1507 42.3214 76.2546 43.0007 76.2546 43.7148C76.2546 45.6304 75.6221 47.1195 74.357 48.1818C73.092 49.2441 71.333 49.7753 69.0802 49.7753H60.8921ZM64.9212 46.2487H69.5481C70.3626 46.2487 71.0124 46.0136 71.4977 45.5433C71.9829 45.0731 72.2255 44.4636 72.2255 43.7148C72.2255 42.9484 71.9829 42.3302 71.4977 41.86C71.0124 41.3898 70.3626 41.1546 69.5481 41.1546H64.9212V46.2487ZM64.9212 37.6279H69.3662C69.99 37.6279 70.4839 37.4538 70.8478 37.1056C71.2291 36.7398 71.4197 36.2609 71.4197 35.6688C71.4197 35.0766 71.2291 34.6064 70.8478 34.2581C70.4839 33.8924 69.99 33.7095 69.3662 33.7095H64.9212V37.6279Z" fill="white"/>
<path d="M82.9463 50.0888C81.9238 50.0888 81.04 49.9233 80.2949 49.5925C79.5497 49.2616 78.9778 48.7913 78.5793 48.1818C78.1807 47.5548 77.9814 46.8147 77.9814 45.9613C77.9814 45.1602 78.1634 44.4549 78.5273 43.8453C78.8912 43.2183 79.4457 42.6959 80.1909 42.2779C80.9534 41.86 81.8978 41.5639 83.0243 41.3898L87.3654 40.6844V43.558L83.7262 44.2111C83.1715 44.3156 82.747 44.4984 82.4524 44.7597C82.1578 45.0034 82.0105 45.3604 82.0105 45.8307C82.0105 46.2661 82.1752 46.6057 82.5044 46.8495C82.8337 47.0933 83.2409 47.2153 83.7262 47.2153C84.3673 47.2153 84.9305 47.0759 85.4157 46.7973C85.901 46.5186 86.2735 46.1442 86.5335 45.6739C86.8107 45.1863 86.9494 44.6552 86.9494 44.0805V40.371C86.9494 39.8311 86.7328 39.3783 86.2995 39.0125C85.8836 38.6468 85.3118 38.4639 84.584 38.4639C83.8908 38.4639 83.2756 38.6555 82.7383 39.0387C82.2185 39.4218 81.8372 39.9269 81.5946 40.5538L78.4753 39.0648C78.7525 38.2637 79.1945 37.5757 79.801 37.001C80.4075 36.4263 81.1354 35.9823 81.9845 35.6688C82.8337 35.3553 83.7608 35.1985 84.7659 35.1985C85.9616 35.1985 87.0188 35.4162 87.9371 35.8516C88.8556 36.287 89.5661 36.8965 90.0687 37.6803C90.5886 38.4465 90.8485 39.3434 90.8485 40.371V49.7753H87.2093V47.4765L88.0931 47.3197C87.6773 47.9467 87.218 48.4692 86.7155 48.8871C86.2129 49.2877 85.6497 49.5838 85.0258 49.7753C84.402 49.9843 83.7088 50.0888 82.9463 50.0888Z" fill="white"/>
<path d="M100.674 50.0888C99.2535 50.0888 97.9711 49.7666 96.8274 49.1223C95.701 48.4605 94.7998 47.5636 94.124 46.4315C93.4655 45.2995 93.1362 44.0282 93.1362 42.6175C93.1362 41.2068 93.4655 39.9442 94.124 38.8296C94.7825 37.6977 95.6836 36.8095 96.8274 36.1651C97.9711 35.5207 99.2535 35.1985 100.674 35.1985C101.732 35.1985 102.711 35.3814 103.612 35.7471C104.513 36.1128 105.284 36.6266 105.925 37.2884C106.567 37.9327 107.026 38.699 107.303 39.5872L103.924 41.0501C103.681 40.3361 103.265 39.7701 102.676 39.3521C102.104 38.9342 101.437 38.7252 100.674 38.7252C99.9986 38.7252 99.3922 38.8907 98.855 39.2215C98.335 39.5524 97.9192 40.0139 97.6072 40.606C97.3126 41.1981 97.1653 41.8773 97.1653 42.6437C97.1653 43.41 97.3126 44.0892 97.6072 44.6813C97.9192 45.2734 98.335 45.7349 98.855 46.0658C99.3922 46.3968 99.9986 46.5621 100.674 46.5621C101.454 46.5621 102.13 46.3532 102.702 45.9352C103.274 45.5172 103.681 44.9512 103.924 44.2372L107.303 45.7263C107.043 46.5621 106.593 47.311 105.951 47.9728C105.31 48.6346 104.539 49.157 103.638 49.5402C102.737 49.9059 101.749 50.0888 100.674 50.0888Z" fill="white"/>
<path d="M109.599 49.7753V30H113.498V42.6698L112.042 42.1996L118.307 35.512H123.116L117.969 41.2592L123.09 49.7753H118.671L114.382 42.5391L116.643 41.9644L112.302 46.7189L113.498 44.4462V49.7753H109.599Z" fill="white"/>
<path d="M124.83 55V35.512H128.469V38.2288L128.131 37.4451C128.599 36.7311 129.232 36.1825 130.029 35.7993C130.843 35.3988 131.77 35.1985 132.81 35.1985C134.162 35.1985 135.384 35.5294 136.475 36.1912C137.567 36.853 138.433 37.7499 139.074 38.8819C139.716 39.9965 140.036 41.2504 140.036 42.6437C140.036 44.0195 139.716 45.2734 139.074 46.4054C138.451 47.5374 137.593 48.4343 136.501 49.0961C135.41 49.7579 134.17 50.0888 132.784 50.0888C131.814 50.0888 130.913 49.9146 130.081 49.5663C129.266 49.2006 128.607 48.6694 128.105 47.9728L128.729 47.163V55H124.83ZM132.316 46.5621C133.044 46.5621 133.685 46.3968 134.24 46.0658C134.794 45.7349 135.228 45.2734 135.539 44.6813C135.851 44.0892 136.007 43.41 136.007 42.6437C136.007 41.8773 135.851 41.2068 135.539 40.6322C135.228 40.04 134.794 39.5785 134.24 39.2477C133.685 38.8993 133.044 38.7252 132.316 38.7252C131.623 38.7252 130.999 38.8907 130.445 39.2215C129.908 39.5524 129.483 40.0139 129.171 40.606C128.876 41.1981 128.729 41.8773 128.729 42.6437C128.729 43.41 128.876 44.0892 129.171 44.6813C129.483 45.2734 129.908 45.7349 130.445 46.0658C130.999 46.3968 131.623 46.5621 132.316 46.5621Z" fill="white"/>
<path d="M146.713 50.0888C145.69 50.0888 144.806 49.9233 144.062 49.5925C143.317 49.2616 142.745 48.7913 142.346 48.1818C141.947 47.5548 141.748 46.8147 141.748 45.9613C141.748 45.1602 141.93 44.4549 142.294 43.8453C142.658 43.2183 143.213 42.6959 143.958 42.2779C144.72 41.86 145.664 41.5639 146.791 41.3898L151.132 40.6844V43.558L147.493 44.2111C146.938 44.3156 146.514 44.4984 146.219 44.7597C145.925 45.0034 145.778 45.3604 145.778 45.8307C145.778 46.2661 145.942 46.6057 146.271 46.8495C146.601 47.0933 147.008 47.2153 147.493 47.2153C148.135 47.2153 148.697 47.0759 149.183 46.7973C149.667 46.5186 150.04 46.1442 150.3 45.6739C150.578 45.1863 150.716 44.6552 150.716 44.0805V40.371C150.716 39.8311 150.5 39.3783 150.067 39.0125C149.65 38.6468 149.079 38.4639 148.351 38.4639C147.657 38.4639 147.042 38.6555 146.505 39.0387C145.985 39.4218 145.604 39.9269 145.361 40.5538L142.242 39.0648C142.519 38.2637 142.961 37.5757 143.568 37.001C144.175 36.4263 144.902 35.9823 145.751 35.6688C146.601 35.3553 147.528 35.1985 148.533 35.1985C149.728 35.1985 150.786 35.4162 151.704 35.8516C152.622 36.287 153.333 36.8965 153.835 37.6803C154.356 38.4465 154.615 39.3434 154.615 40.371V49.7753H150.976V47.4765L151.86 47.3197C151.444 47.9467 150.985 48.4692 150.482 48.8871C149.98 49.2877 149.416 49.5838 148.793 49.7753C148.169 49.9843 147.475 50.0888 146.713 50.0888Z" fill="white"/>
<path d="M164.442 50.0888C163.02 50.0888 161.738 49.7666 160.594 49.1223C159.468 48.4605 158.567 47.5636 157.891 46.4315C157.232 45.2995 156.903 44.0282 156.903 42.6175C156.903 41.2068 157.232 39.9442 157.891 38.8296C158.549 37.6977 159.45 36.8095 160.594 36.1651C161.738 35.5207 163.02 35.1985 164.442 35.1985C165.498 35.1985 166.478 35.3814 167.379 35.7471C168.28 36.1128 169.051 36.6266 169.692 37.2884C170.334 37.9327 170.793 38.699 171.07 39.5872L167.691 41.0501C167.448 40.3361 167.032 39.7701 166.443 39.3521C165.871 38.9342 165.204 38.7252 164.442 38.7252C163.766 38.7252 163.159 38.8907 162.622 39.2215C162.102 39.5524 161.686 40.0139 161.374 40.606C161.08 41.1981 160.932 41.8773 160.932 42.6437C160.932 43.41 161.08 44.0892 161.374 44.6813C161.686 45.2734 162.102 45.7349 162.622 46.0658C163.159 46.3968 163.766 46.5621 164.442 46.5621C165.222 46.5621 165.897 46.3532 166.469 45.9352C167.041 45.5172 167.448 44.9512 167.691 44.2372L171.07 45.7263C170.81 46.5621 170.359 47.311 169.718 47.9728C169.077 48.6346 168.306 49.157 167.405 49.5402C166.504 49.9059 165.516 50.0888 164.442 50.0888Z" fill="white"/>
<path d="M173.365 49.7753V30H177.265V42.6698L175.81 42.1996L182.074 35.512H186.882L181.736 41.2592L186.857 49.7753H182.438L178.149 42.5391L180.41 41.9644L176.069 46.7189L177.265 44.4462V49.7753H173.365Z" fill="white"/>
<mask id="mask0_6342_6277" style="mask-type:luminance" maskUnits="userSpaceOnUse" x="32" y="25" width="19" height="27">
<path d="M50.5015 25H32.4546V51.25H50.5015V25Z" fill="white"/>
</mask>
<g mask="url(#mask0_6342_6277)">
<path fill-rule="evenodd" clip-rule="evenodd" d="M43.1876 27.064C44.1417 27.064 45.0366 27.1919 45.8652 27.4291C45.054 25.5384 43.3696 25 41.4951 25C39.6168 25 37.9295 25.5405 37.1201 27.4402C37.9426 27.1947 38.8337 27.064 39.7846 27.064H43.1876ZM39.5663 28.9622C35.0359 28.9622 32.4546 32.5262 32.4546 36.9227V41.4391C32.4546 41.8787 32.8219 42.2266 33.2749 42.2266H49.6812C50.1342 42.2266 50.5015 41.8787 50.5015 41.4391V36.9227C50.5015 32.5262 47.4998 28.9622 42.9693 28.9622H39.5663ZM41.4716 36.9618C43.0572 36.9618 44.3427 35.6763 44.3427 34.0907C44.3427 32.5051 43.0572 31.2196 41.4716 31.2196C39.886 31.2196 38.6005 32.5051 38.6005 34.0907C38.6005 35.6763 39.886 36.9618 41.4716 36.9618ZM32.4546 44.8812C32.4546 44.4415 32.8219 44.0851 33.2749 44.0851H49.6812C50.1342 44.0851 50.5015 44.4415 50.5015 44.8812V49.6575C50.5015 50.5368 49.7669 51.2496 48.8608 51.2496H34.0952C33.1891 51.2496 32.4546 50.5368 32.4546 49.6575V44.8812Z" fill="#E33E3F"/>
</g>
</g>
<defs>
<clipPath id="clip0_6342_6277">
<rect width="155.625" height="30" fill="white" transform="translate(32.4546 25)"/>
</clipPath>
</defs>
</svg>
